<?xml version="1.0" encoding="utf-8"?>
<!-- Generator: Adobe Illustrator 26.0.2, SVG Export Plug-In . SVG Version: 6.00 Build 0)  -->
<svg version="1.1" id="Layer_1" xmlns="http://www.w3.org/2000/svg" xmlns:xlink="http://www.w3.org/1999/xlink" x="0px" y="0px"
	 viewBox="0 0 256 256" style="enable-background:new 0 0 256 256;" xml:space="preserve">
<style type="text/css">
	.st0{fill:#FFFFFF;}
</style>
<path class="st0" d="M51,237c-17.7,0-32-14.3-32-32s14.3-32,32-32s32,14.3,32,32S68.6,237,51,237z M163.2,214.1
	c0-66.9-54.4-121.2-121.2-121.2c-13.8,0-25,11.2-25,25s11.2,25,25,25c39.3,0,71.2,32,71.2,71.2c0,13.8,11.2,25,25,25
	S163.2,227.9,163.2,214.1z M239.1,212.9c0-108-87.9-195.9-195.9-195.9c-13.8,0-25,11.2-25,25s11.2,25,25,25
	c80.5,0,145.9,65.5,145.9,145.9c0,13.8,11.2,25,25,25C227.9,237.9,239.1,226.7,239.1,212.9z"/>
</svg>
